<svg width="32" height="32" viewBox="0 0 32 32" fill="none" xmlns="http://www.w3.org/2000/svg">
<g clip-path="url(#clip0_1458_172)">
<mask id="mask0_1458_172" style="mask-type:luminance" maskUnits="userSpaceOnUse" x="1" y="-2" width="33" height="32">
<path d="M33 -2H1V30H33V-2Z" fill="white"/>
<path d="M29.5 6.5C31.7091 6.5 33.5 4.70914 33.5 2.5C33.5 0.290861 31.7091 -1.5 29.5 -1.5C27.2909 -1.5 25.5 0.290861 25.5 2.5C25.5 4.70914 27.2909 6.5 29.5 6.5Z" fill="black"/>
</mask>
<g mask="url(#mask0_1458_172)">
<path d="M9.00009 1H25C26.5913 1 28.1174 1.7274 29.2426 3.02217C30.3679 4.31694 31 6.07303 31 7.90411V17.8767C31 19.7078 30.3679 21.4639 29.2426 22.7587C28.1174 24.0534 26.5913 24.7808 25 24.7808H15.0001L8.33343 29V24.7808C6.86032 24.5913 5.50031 23.7811 4.51554 22.5063C3.53076 21.2315 2.99094 19.5823 3.00012 17.8767V7.90411C3.00012 6.07303 3.63225 4.31694 4.75747 3.02217C5.88268 1.7274 7.4088 1 9.00009 1Z" stroke="#004596" stroke-linejoin="round"/>
<path d="M16.3722 14.4495V5.95595H18.5605V20.0251L10.3978 11.3318V19.8253H8.22681V5.7561L16.3722 14.4495Z" fill="#004596"/>
<path d="M25.7703 19.8253H23.4952V9.31338L20.5601 10.8322V8.47402L25.7703 5.7561V19.8253Z" fill="#E65907"/>
</g>
<path d="M28.5 0.25L29.4 2.6L31.75 3.5L29.4 4.4L28.5 6.75L27.6 4.4L25.25 3.5L27.6 2.6L28.5 0.25Z" fill="#E65907"/>
</g>
<defs>
<clipPath id="clip0_1458_172">
<rect width="32" height="32" fill="white"/>
</clipPath>
</defs>
</svg>
